<?xml version="1.0" encoding="utf-8"?>
<!-- Svg Vector Icons : http://www.onlinewebfonts.com/icon -->
<!DOCTYPE svg PUBLIC "-//W3C//DTD SVG 1.1//EN" "http://www.w3.org/Graphics/SVG/1.1/DTD/svg11.dtd">
<svg version="1.1" xmlns="http://www.w3.org/2000/svg" xmlns:xlink="http://www.w3.org/1999/xlink"
     x="0px" y="0px" viewBox="0 0 1000 1000" enable-background="new 0 0 1000 1000" xml:space="preserve"
height="16px" width="16px" fill="mediumpurple">
<metadata> Svg Vector Icons : http://www.onlinewebfonts.com/icon </metadata>
<g><path d="M238.9,990l-70.4-204.7C94.5,780.1,36,719.9,36,646.7V149c0-76.6,64.1-139,142.9-139h642.1C899.9,10,964,72.3,964,149v497.8c0,76.6-64.1,139-142.9,139H435.8c-10.4,0-42,8.6-110.1,88.2c-38.9,45.5-70.2,91.6-70.5,92L238.9,990z M178.9,39C116.1,39,65,88.3,65,149v497.8c0,60.6,51.1,109.9,113.9,109.9h10.4l58.4,169.6c13.2-18.1,33.1-44.5,55.9-71.2c56.6-66.2,99.8-98.4,132.2-98.4h385.3c62.8,0,113.9-49.3,113.9-109.9V149C935,88.3,883.9,39,821.1,39L178.9,39L178.9,39z"/></g>
</svg>