<svg enable-background="new 0 0 512 512" height="24px" viewBox="-40 -50 552 512" fill="#999999"
     width="24px" xmlns="http://www.w3.org/2000/svg" xmlns:xlink="http://www.w3.org/1999/xlink">
    <linearGradient id="SVGID_1_" gradientUnits="userSpaceOnUse" x1="256" x2="300" y1="481" y2="31">
        <stop offset="0" stop-color="#5558ff"/><stop offset="1" stop-color="#00c0ff"/>
    </linearGradient>
    <g>
        <g fill="mediumpurple">
            <circle cx="22" cy="-9" r="60"/>
        </g>
        <g>
            <path d="m166 271h120c8.291 0 15-6.709
            15-15v-120c0-8.291-6.709-15-15-15h-120c-8.291 0-15 6.709-15 15v120c0 8.291 6.709
            15 15 15zm15-120h90v90h-90zm316-120h-392c-8.291 0-15 6.709-15 15v285h-75c-8.291 0-15 6.709-15
             15v75c0 33.091 26.909 60 60 60h377c41.353 0 75-33.647 75-75v-360c0-8.291-6.709-15-15-15zm-407
             390c0 16.538-13.462 30-30 30s-30-13.462-30-30v-60h60zm392-15c0 24.814-20.186 45-45
             45h-325.344c5.167-8.86 8.344-19.023 8.344-30v-360h362zm-135-255h90c8.291 0 15-6.709
             15-15s-6.709-15-15-15h-90c-8.291 0-15 6.709-15 15s6.709 15 15 15zm0 60h90c8.291 0
             15-6.709 15-15s-6.709-15-15-15h-90c-8.291 0-15 6.709-15 15s6.709 15 15 15zm0 60h90c8.291 0
             15-6.709 15-15s-6.709-15-15-15h-90c-8.291 0-15 6.709-15 15s6.709 15 15 15zm-181 60h271c8.291 0
             15-6.709 15-15s-6.709-15-15-15h-271c-8.291 0-15 6.709-15 15s6.709 15 15 15zm0 60h271c8.291 0
             15-6.709 15-15s-6.709-15-15-15h-271c-8.291 0-15 6.709-15 15s6.709 15 15 15z"
                                         />
        </g>
    </g>
</svg>