<?xml version="1.0" encoding="utf-8"?>
<!-- Svg Vector Icons : http://www.onlinewebfonts.com/icon -->
<!DOCTYPE svg PUBLIC "-//W3C//DTD SVG 1.1//EN" "http://www.w3.org/Graphics/SVG/1.1/DTD/svg11.dtd">
<svg version="1.1" xmlns="http://www.w3.org/2000/svg" xmlns:xlink="http://www.w3.org/1999/xlink" x="0px" y="0px" viewBox="0 0 1000 1000"
     enable-background="new 0 0 1000 1000" xml:space="preserve"  height="16px" width="16px" fill="mediumpurple">
<metadata> Svg Vector Icons : http://www.onlinewebfonts.com/icon </metadata>
<g><path d="M990,996.2l-21.2-71.1C894,675,631.6,637.6,481.8,637.6c-14.4,0-26,0.4-33.9,
0.7v254.2l-438-445L448,3.8v252.1c207.5,3.1,542,96.5,542,666.3V996.2z M481.8,616c115.8,0,380.7,25.2,
485.1,243.9c-23.8-505-339-582.5-529.8-582.5h-10.8V56.6L40.4,447.5l385.8,392V617l18.3-0.2C452.6,
616.4,465.4,616,481.8,616z"/></g>
</svg>