<?xml version="1.0" encoding="utf-8"?>
<!-- Svg Vector Icons : http://www.onlinewebfonts.com/icon -->
<!DOCTYPE svg PUBLIC "-//W3C//DTD SVG 1.1//EN" "http://www.w3.org/Graphics/SVG/1.1/DTD/svg11.dtd">
<svg version="1.1" xmlns="http://www.w3.org/2000/svg" xmlns:xlink="http://www.w3.org/1999/xlink" x="0px" y="0px"
     viewBox="0 0 1000 1000" enable-background="new 0 0 1000 1000" xml:space="preserve" fill="#f2f2f2">
<metadata> Svg Vector Icons : http://www.onlinewebfonts.com/icon </metadata>
<g><path d="M979.9,931.1L548.8,500l431-431c13.5-13.5,13.5-35.3,0-48.8c-13.5-13.5-35.3-13.5-48.8,0l-431,431L69,20.1c-13.5-13.5-35.3-13.5-48.8,0C6.6,33.6,6.6,55.5,20.1,69l431,431l-431,431.1c-13.5,13.5-13.5,35.3,0,48.8c13.5,13.5,35.4,13.5,48.9,0l431-431.1l431,431.1c13.5,13.5,35.3,13.5,48.8,0C993.4,966.3,993.4,944.6,979.9,931.1z"/></g>
</svg>